<svg xmlns="http://www.w3.org/2000/svg" viewBox="0 0 100 100">
  <defs>
    <linearGradient id="book1Gradient" x1="0%" y1="0%" x2="100%" y2="100%">
      <stop offset="0%" style="stop-color:#E63946;stop-opacity:1" />
      <stop offset="100%" style="stop-color:#C92A37;stop-opacity:1" />
    </linearGradient>
    <linearGradient id="book2Gradient" x1="0%" y1="0%" x2="100%" y2="100%">
      <stop offset="0%" style="stop-color:#2C5F7E;stop-opacity:1" />
      <stop offset="100%" style="stop-color:#1C3F5E;stop-opacity:1" />
    </linearGradient>
    <linearGradient id="book3Gradient" x1="0%" y1="0%" x2="100%" y2="100%">
      <stop offset="0%" style="stop-color:#06A77D;stop-opacity:1" />
      <stop offset="100%" style="stop-color:#048767;stop-opacity:1" />
    </linearGradient>
  </defs>

  <!-- Shadow -->
  <ellipse cx="50" cy="88" rx="35" ry="4" fill="#000000" opacity="0.2"/>

  <!-- Bottom Book (Red) - slightly tilted left -->
  <g transform="rotate(-8 50 75)">
    <rect x="20" y="60" width="60" height="12" rx="1.5" fill="url(#book1Gradient)"/>
    <rect x="20" y="60" width="5" height="12" rx="1" fill="#B02030"/>
    <line x1="28" y1="60" x2="28" y2="72" stroke="#FFB3BA" stroke-width="0.5" opacity="0.6"/>
    <line x1="32" y1="60" x2="32" y2="72" stroke="#FFB3BA" stroke-width="0.5" opacity="0.6"/>
  </g>

  <!-- Middle Book (Blue) - center -->
  <g>
    <rect x="25" y="45" width="50" height="12" rx="1.5" fill="url(#book2Gradient)"/>
    <rect x="25" y="45" width="4" height="12" rx="1" fill="#0F2638"/>
    <line x1="32" y1="45" x2="32" y2="57" stroke="#6BA3C8" stroke-width="0.5" opacity="0.6"/>
    <line x1="36" y1="45" x2="36" y2="57" stroke="#6BA3C8" stroke-width="0.5" opacity="0.6"/>
    <!-- Decorative line on spine -->
    <rect x="26" y="49" width="2" height="1" fill="#FFD700" opacity="0.8"/>
  </g>

  <!-- Top Book (Green) - slightly tilted right -->
  <g transform="rotate(6 50 35)">
    <rect x="28" y="28" width="44" height="11" rx="1.5" fill="url(#book3Gradient)"/>
    <rect x="28" y="28" width="4" height="11" rx="1" fill="#036B55"/>
    <line x1="35" y1="28" x2="35" y2="39" stroke="#7FE5C8" stroke-width="0.5" opacity="0.6"/>
    <line x1="38" y1="28" x2="38" y2="39" stroke="#7FE5C8" stroke-width="0.5" opacity="0.6"/>
  </g>

  <!-- Open Book on Top (showing reading activity) -->
  <g>
    <!-- Left page -->
    <path d="M 35 18 Q 35 22 38 24 L 48 24 L 48 14 L 38 14 Q 35 16 35 18 Z"
          fill="#FFFFFF" stroke="#D0D0D0" stroke-width="0.5"/>
    <!-- Right page -->
    <path d="M 52 24 L 62 24 Q 65 22 65 18 Q 65 16 62 14 L 52 14 Z"
          fill="#F5F5F5" stroke="#D0D0D0" stroke-width="0.5"/>
    <!-- Binding -->
    <line x1="50" y1="14" x2="50" y2="24" stroke="#999" stroke-width="1"/>

    <!-- Text lines on pages -->
    <line x1="39" y1="17" x2="47" y2="17" stroke="#1C3F5E" stroke-width="0.5" opacity="0.4"/>
    <line x1="39" y1="19" x2="46" y2="19" stroke="#1C3F5E" stroke-width="0.5" opacity="0.4"/>
    <line x1="39" y1="21" x2="47" y2="21" stroke="#1C3F5E" stroke-width="0.5" opacity="0.4"/>

    <line x1="53" y1="17" x2="61" y2="17" stroke="#1C3F5E" stroke-width="0.5" opacity="0.4"/>
    <line x1="53" y1="19" x2="60" y2="19" stroke="#1C3F5E" stroke-width="0.5" opacity="0.4"/>
    <line x1="53" y1="21" x2="61" y2="21" stroke="#1C3F5E" stroke-width="0.5" opacity="0.4"/>
  </g>

  <!-- Small sparkle effects (reading enthusiasm) -->
  <circle cx="72" cy="20" r="1.5" fill="#FFD700" opacity="0.8"/>
  <circle cx="76" cy="16" r="1" fill="#FFD700" opacity="0.6"/>
  <circle cx="28" cy="24" r="1" fill="#FFD700" opacity="0.6"/>
</svg>
